<svg xmlns="http://www.w3.org/2000/svg" version="1.1" x="0px" y="0px" viewBox="0 0 100 100" enable-background="new 0 0 100 100" xml:space="preserve"><ellipse fill="#000000" cx="21" cy="42.5" rx="3" ry="12.5"/><path fill="#000000" d="M92,88.988V39.331C92,23.761,87.952,8,80.216,8H21C13.122,8,9,25.355,9,42.5S13.122,77,21,77h8v11.988  c0,0.001,0,0.001,0,0.002V89c0,0.029,0.007,0.055,0.008,0.084c0.004,0.102,0.011,0.204,0.031,0.305  c0.013,0.065,0.037,0.126,0.056,0.188c0.019,0.062,0.033,0.125,0.058,0.186c0.04,0.096,0.092,0.186,0.146,0.274  c0.015,0.023,0.023,0.048,0.038,0.071c0.001,0.001,0.002,0.002,0.002,0.003c0.085,0.126,0.187,0.239,0.297,0.343  c0.036,0.034,0.074,0.062,0.112,0.093c0.08,0.065,0.163,0.123,0.252,0.175c0.044,0.026,0.088,0.051,0.134,0.073  c0.096,0.046,0.197,0.083,0.301,0.113c0.04,0.012,0.078,0.028,0.119,0.037C30.698,90.979,30.846,91,31,91c0.001,0,0.001,0,0.002,0  c0.003,0,0.006-0.001,0.01-0.001c0.173-0.001,0.338-0.03,0.498-0.073c0.042-0.011,0.082-0.024,0.124-0.039  c0.165-0.055,0.322-0.125,0.463-0.218c0.004-0.002,0.009-0.003,0.013-0.006l0.007-0.005c0.001,0,0.002-0.001,0.002-0.002L37,87.404  l4.891,3.26c0.672,0.448,1.547,0.448,2.219,0L49,87.404l4.891,3.26c0.672,0.448,1.547,0.448,2.219,0L61,87.404l4.891,3.26  c0.672,0.448,1.547,0.448,2.219,0L73,87.404l4.891,3.26c0.725,0.483,1.679,0.441,2.359-0.103l3.857-3.086l4.773,3.182  c0,0.001,0.001,0.001,0.002,0.002l0.007,0.005c0.022,0.015,0.047,0.023,0.07,0.037c0.089,0.054,0.179,0.106,0.276,0.146  c0.059,0.024,0.12,0.038,0.18,0.056c0.064,0.02,0.127,0.044,0.194,0.058c0.097,0.019,0.195,0.025,0.294,0.029  C89.938,90.992,89.968,91,90,91c0.002,0,0.003,0,0.005,0c0.131,0,0.262-0.014,0.39-0.04c0.069-0.014,0.133-0.039,0.2-0.06  c0.057-0.018,0.116-0.03,0.171-0.053c0.066-0.027,0.125-0.065,0.188-0.099c0.052-0.028,0.106-0.051,0.156-0.084  c0.062-0.042,0.116-0.093,0.173-0.141c0.042-0.036,0.088-0.066,0.128-0.105c0.093-0.093,0.177-0.195,0.25-0.304  c0.001-0.001,0.002-0.002,0.003-0.003c0.015-0.023,0.023-0.048,0.038-0.071c0.054-0.088,0.105-0.178,0.146-0.274  c0.025-0.061,0.039-0.124,0.058-0.186c0.019-0.062,0.042-0.123,0.056-0.188c0.02-0.101,0.026-0.203,0.031-0.305  C91.993,89.055,92,89.029,92,89v-0.009C92,88.99,92,88.989,92,88.988z M13,42.5C13,22.475,18.208,12,21,12s8,10.475,8,30.5  S23.792,73,21,73S13,62.525,13,42.5z M82.75,83.438l-3.857,3.086l-4.783-3.188c-0.672-0.448-1.547-0.448-2.219,0L67,86.596  l-4.891-3.26c-0.672-0.448-1.547-0.448-2.219,0L55,86.596l-4.891-3.26c-0.672-0.448-1.547-0.448-2.219,0L43,86.596l-4.891-3.26  c-0.672-0.448-1.547-0.448-2.219,0L33,85.263V40.723C33.295,40.895,33.634,41,34,41h3c1.104,0,2-0.896,2-2s-0.896-2-2-2h-3  c-0.418,0-0.805,0.129-1.126,0.348C32.373,27.007,30.361,17.246,26.922,12h53.293c3.116,0,7.408,9.558,7.758,25.264  C87.685,37.101,87.355,37,87,37h-3c-1.104,0-2,0.896-2,2s0.896,2,2,2h3c0.366,0,0.705-0.105,1-0.277v44.541l-2.891-1.927  C84.384,82.853,83.43,82.895,82.75,83.438z"/><path fill="#000000" d="M77,37h-3c-1.104,0-2,0.896-2,2s0.896,2,2,2h3c1.104,0,2-0.896,2-2S78.104,37,77,37z"/><path fill="#000000" d="M47,37h-3c-1.104,0-2,0.896-2,2s0.896,2,2,2h3c1.104,0,2-0.896,2-2S48.104,37,47,37z"/><path fill="#000000" d="M67,37h-3c-1.104,0-2,0.896-2,2s0.896,2,2,2h3c1.104,0,2-0.896,2-2S68.104,37,67,37z"/><path fill="#000000" d="M57,37h-3c-1.104,0-2,0.896-2,2s0.896,2,2,2h3c1.104,0,2-0.896,2-2S58.104,37,57,37z"/></svg>